<?xml version="1.0" encoding="UTF-8"?>
<svg id="Layer_2" data-name="Layer 2" xmlns="http://www.w3.org/2000/svg" viewBox="0 0 134.86 49.85">
  <defs>
    <style>
      .cls-1 {
        fill: #202d7c;
      }

      .cls-2 {
        fill: #3070aa;
      }
    </style>
  </defs>
  <g id="Layer_1-2" data-name="Layer 1">
    <g>
      <polygon class="cls-2" points="25.6 0 25.59 .01 25.59 4.17 48.39 24 48.39 45.89 22.8 45.89 22.8 2.38 19.85 4.89 19.85 45.89 16.4 45.89 16.4 7.82 13.62 10.2 13.62 45.89 9.68 45.89 9.68 13.55 6.89 15.92 6.89 45.89 2.95 45.89 2.95 19.27 0 21.78 0 48.68 51.18 48.68 51.18 22.04 25.6 0"/>
      <g>
        <path class="cls-1" d="M58.47,21.91h3.38v6.38l5.97-6.38h4.43l-6.83,7.14,7.42,8.22h-4.73l-6.25-7.29v7.29h-3.38v-15.36Z"/>
        <path class="cls-1" d="M73.57,21.91h4.6l6.53,10.67h.04v-10.67h3.38v15.36h-4.43l-6.7-10.94h-.04v10.94h-3.38v-15.36Z"/>
        <path class="cls-1" d="M89.15,32c0-.84.15-1.6.46-2.28.3-.68.72-1.26,1.25-1.75.53-.48,1.15-.86,1.87-1.12.72-.26,1.48-.39,2.29-.39s1.57.13,2.29.39c.72.26,1.34.63,1.87,1.12.53.48.94,1.07,1.25,1.75.3.68.46,1.44.46,2.28s-.15,1.6-.46,2.28c-.3.68-.72,1.26-1.25,1.75-.53.48-1.15.86-1.87,1.12-.72.26-1.48.39-2.29.39s-1.57-.13-2.29-.39c-.72-.26-1.34-.63-1.87-1.12-.53-.48-.94-1.07-1.25-1.75-.3-.68-.46-1.44-.46-2.28ZM92.4,32c0,.8.23,1.44.68,1.93.46.49,1.1.74,1.92.74s1.46-.25,1.92-.74c.46-.49.68-1.14.68-1.93s-.23-1.44-.68-1.93c-.46-.49-1.1-.74-1.92-.74s-1.46.25-1.92.74c-.46.49-.68,1.14-.68,1.93Z"/>
        <path class="cls-1" d="M100.37,26.73h3.51l2.67,7.16h.04l2.47-7.16h3.28l-4.17,10.54h-3.45l-4.36-10.54Z"/>
        <path class="cls-1" d="M119.29,35.95h-.04c-.36.56-.84.97-1.44,1.21-.6.25-1.23.37-1.9.37-.49,0-.97-.07-1.42-.21-.46-.14-.86-.34-1.2-.62-.35-.27-.62-.61-.82-1.02-.2-.4-.3-.88-.3-1.41,0-.61.11-1.12.34-1.54.22-.42.53-.77.91-1.04.38-.27.82-.49,1.31-.64.49-.15,1-.26,1.53-.34.53-.07,1.06-.12,1.58-.13.53-.01,1.02-.02,1.46-.02,0-.58-.21-1.04-.62-1.38-.41-.34-.9-.51-1.46-.51s-1.02.11-1.46.34c-.44.22-.84.53-1.18.92l-1.74-1.78c.61-.56,1.32-.99,2.13-1.27.81-.28,1.65-.42,2.52-.42.95,0,1.74.12,2.35.36.61.24,1.11.59,1.48,1.05.37.46.63,1.03.77,1.7.14.67.22,1.45.22,2.33v5.36h-2.99v-1.32ZM118.48,32.65c-.25,0-.55.01-.92.03-.37.02-.72.08-1.06.18-.34.1-.63.25-.87.46-.24.2-.36.48-.36.85,0,.39.17.68.5.87.33.19.68.28,1.04.28.32,0,.63-.04.92-.13.3-.09.56-.21.79-.37.23-.16.42-.36.55-.61.14-.25.21-.53.21-.87v-.69h-.8Z"/>
        <path class="cls-1" d="M63.57,42.37c-.22-.28-.49-.5-.83-.65-.33-.15-.68-.23-1.03-.23-.44,0-.83.08-1.18.25-.35.16-.65.39-.9.67-.25.28-.44.62-.58,1s-.21.79-.21,1.23c0,.41.07.79.2,1.15.13.36.32.68.57.96.25.28.55.49.9.65s.76.24,1.21.24.83-.09,1.17-.27c.33-.18.62-.44.85-.76l.88.66c-.06.08-.16.19-.31.34s-.34.3-.58.45c-.24.15-.53.28-.87.39s-.73.17-1.17.17c-.61,0-1.16-.12-1.65-.35-.49-.23-.91-.54-1.25-.91-.34-.38-.61-.8-.79-1.28-.18-.48-.27-.96-.27-1.44,0-.6.1-1.15.29-1.65s.47-.94.82-1.31c.35-.37.78-.65,1.27-.86.49-.2,1.04-.3,1.63-.3.51,0,1.01.1,1.5.29s.89.5,1.2.9l-.87.66Z"/>
        <path class="cls-1" d="M65.15,45.84c0-.38.07-.73.21-1.06.14-.33.34-.61.58-.86.25-.25.54-.44.87-.58.33-.14.69-.21,1.08-.21s.74.07,1.08.21c.33.14.62.34.87.58.25.25.44.53.58.86.14.33.21.68.21,1.06s-.07.73-.21,1.06c-.14.33-.34.62-.58.86-.25.24-.54.44-.87.58-.33.14-.69.21-1.08.21s-.74-.07-1.08-.21-.62-.33-.87-.58c-.25-.24-.44-.53-.58-.86-.14-.33-.21-.68-.21-1.06ZM66.2,45.84c0,.26.04.5.12.72.08.22.19.41.34.57.15.16.32.28.53.37s.45.14.71.14.5-.05.71-.14.39-.21.53-.37c.14-.16.26-.34.34-.57.08-.22.12-.46.12-.72s-.04-.5-.12-.72c-.08-.22-.19-.41-.34-.57-.15-.16-.32-.28-.53-.37-.21-.09-.45-.14-.71-.14s-.5.05-.71.14c-.21.09-.39.21-.53.37-.15.16-.26.35-.34.57-.08.22-.12.46-.12.72Z"/>
        <path class="cls-1" d="M71.65,43.26h.98v.79h.02c.12-.28.34-.5.64-.67.3-.17.66-.26,1.06-.26.25,0,.48.04.71.11.23.08.43.19.6.35.17.16.31.36.41.62.1.25.15.55.15.89v3.32h-.98v-3.05c0-.24-.03-.44-.1-.62s-.15-.31-.26-.41c-.11-.11-.23-.18-.38-.23-.14-.05-.29-.07-.44-.07-.2,0-.39.03-.57.1-.17.07-.33.17-.46.31-.13.14-.23.32-.31.54s-.11.48-.11.77v2.66h-.98v-5.16Z"/>
        <path class="cls-1" d="M80.26,44.1h-1.4v2.34c0,.15,0,.29.01.43,0,.14.03.27.08.38s.12.2.22.27.24.1.43.1c.12,0,.24-.01.36-.03.12-.02.24-.06.34-.12v.89c-.12.07-.27.11-.45.14-.19.03-.33.04-.43.04-.38,0-.67-.05-.88-.16-.21-.11-.36-.24-.46-.41-.1-.17-.16-.35-.17-.56-.02-.21-.03-.42-.03-.63v-2.69h-1.13v-.85h1.13v-1.45h.98v1.45h1.4v.85Z"/>
        <path class="cls-1" d="M81.3,43.26h.98v.79h.02c.07-.14.15-.26.26-.38.11-.11.23-.21.37-.29.13-.08.28-.14.44-.19.16-.05.32-.07.48-.07s.3.02.44.07l-.04,1.06c-.08-.02-.16-.04-.24-.05-.08-.01-.16-.02-.24-.02-.48,0-.85.13-1.1.4-.25.27-.38.69-.38,1.25v2.59h-.98v-5.16Z"/>
        <path class="cls-1" d="M85.14,43.89c.28-.25.6-.44.96-.57.36-.13.73-.19,1.09-.19s.7.05.97.14c.27.09.5.22.67.38.17.16.3.34.39.55.08.21.13.42.13.65v2.64c0,.18,0,.35.01.5s.02.3.03.44h-.87c-.02-.26-.03-.52-.03-.78h-.02c-.22.33-.48.57-.77.71-.3.14-.64.21-1.03.21-.24,0-.47-.03-.69-.1-.22-.07-.41-.16-.57-.29-.16-.13-.29-.29-.39-.48-.09-.19-.14-.42-.14-.67,0-.33.07-.61.22-.84.15-.23.35-.41.61-.55.26-.14.56-.24.9-.3.34-.06.71-.09,1.11-.09h.72v-.22c0-.13-.03-.26-.08-.39-.05-.13-.13-.25-.23-.35-.1-.11-.23-.19-.38-.25-.15-.06-.33-.09-.54-.09-.19,0-.35.02-.5.05s-.27.08-.39.14-.22.12-.32.19c-.09.07-.19.14-.27.21l-.59-.61ZM87.9,45.93c-.23,0-.47.01-.71.04-.24.03-.46.07-.66.15-.2.07-.36.17-.49.3s-.19.3-.19.5c0,.3.1.51.3.64s.47.2.81.2c.27,0,.5-.05.69-.14.19-.09.34-.21.46-.35.12-.15.2-.31.25-.48.05-.18.08-.35.08-.53v-.33h-.52Z"/>
        <path class="cls-1" d="M94.24,44.63c-.18-.19-.37-.33-.57-.43s-.44-.15-.71-.15-.5.05-.7.15-.37.23-.5.4c-.13.17-.24.37-.31.59-.07.22-.1.45-.1.69s.04.47.12.68c.08.21.19.4.34.56.14.16.32.28.52.38.2.09.43.14.69.14.28,0,.51-.05.71-.15.2-.1.38-.24.54-.43l.7.7c-.25.28-.55.49-.89.61s-.7.19-1.07.19c-.4,0-.76-.07-1.09-.2-.33-.13-.62-.31-.86-.55-.24-.24-.42-.52-.56-.85-.13-.33-.2-.7-.2-1.09s.07-.77.2-1.1c.13-.33.31-.62.55-.86.24-.24.52-.43.85-.56.33-.13.7-.2,1.11-.2.38,0,.74.07,1.08.2.34.13.64.34.9.62l-.74.68Z"/>
        <path class="cls-1" d="M98.35,44.1h-1.4v2.34c0,.15,0,.29.01.43,0,.14.03.27.08.38s.12.2.22.27.24.1.43.1c.12,0,.24-.01.36-.03.12-.02.24-.06.34-.12v.89c-.12.07-.27.11-.45.14-.19.03-.33.04-.43.04-.38,0-.67-.05-.88-.16-.21-.11-.36-.24-.46-.41-.1-.17-.16-.35-.17-.56-.02-.21-.03-.42-.03-.63v-2.69h-1.13v-.85h1.13v-1.45h.98v1.45h1.4v.85Z"/>
        <path class="cls-1" d="M99.14,45.84c0-.38.07-.73.21-1.06.14-.33.34-.61.58-.86.25-.25.54-.44.87-.58.33-.14.69-.21,1.08-.21s.74.07,1.08.21c.33.14.62.34.87.58.25.25.44.53.58.86.14.33.21.68.21,1.06s-.07.73-.21,1.06c-.14.33-.34.62-.58.86-.25.24-.54.44-.87.58s-.69.21-1.08.21-.74-.07-1.08-.21c-.33-.14-.62-.33-.87-.58-.25-.24-.44-.53-.58-.86-.14-.33-.21-.68-.21-1.06ZM100.19,45.84c0,.26.04.5.12.72.08.22.19.41.34.57.14.16.32.28.53.37.21.09.45.14.71.14s.5-.05.71-.14c.21-.09.39-.21.53-.37.15-.16.26-.34.34-.57.08-.22.12-.46.12-.72s-.04-.5-.12-.72c-.08-.22-.19-.41-.34-.57-.15-.16-.32-.28-.53-.37-.21-.09-.45-.14-.71-.14s-.5.05-.71.14c-.21.09-.39.21-.53.37-.15.16-.26.35-.34.57-.08.22-.12.46-.12.72Z"/>
        <path class="cls-1" d="M105.64,43.26h.98v.79h.02c.07-.14.15-.26.26-.38.11-.11.23-.21.37-.29.13-.08.28-.14.44-.19.16-.05.32-.07.48-.07s.3.02.44.07l-.04,1.06c-.08-.02-.16-.04-.24-.05-.08-.01-.16-.02-.24-.02-.48,0-.85.13-1.1.4-.25.27-.38.69-.38,1.25v2.59h-.98v-5.16Z"/>
        <path class="cls-1" d="M112.2,44.55c-.12-.15-.26-.27-.43-.36-.17-.1-.38-.15-.63-.15-.23,0-.43.05-.6.15-.17.1-.26.24-.26.43,0,.15.05.28.15.37.1.09.21.17.35.23.13.06.28.1.43.13.15.03.28.05.39.08.21.05.41.11.59.19.18.07.34.17.48.28.13.12.24.26.32.42.08.17.11.37.11.61,0,.29-.06.54-.18.75-.12.21-.28.38-.48.51-.2.13-.42.23-.67.28-.25.06-.5.09-.76.09-.43,0-.8-.07-1.13-.2-.32-.13-.61-.37-.87-.72l.74-.61c.16.16.34.3.53.42.2.12.44.19.72.19.12,0,.25-.01.38-.04.13-.03.24-.07.34-.12.1-.05.18-.12.24-.21.06-.08.09-.18.09-.29,0-.15-.05-.26-.14-.36-.09-.09-.2-.17-.33-.22-.13-.05-.26-.1-.4-.13-.14-.03-.27-.06-.38-.08-.21-.05-.41-.11-.6-.17-.19-.07-.36-.15-.5-.26s-.26-.25-.35-.41c-.09-.17-.13-.37-.13-.62,0-.27.06-.5.17-.7.11-.2.26-.36.45-.5.18-.13.4-.23.63-.29.24-.07.47-.1.71-.1.35,0,.68.07,1,.2.32.13.57.35.76.65l-.76.58Z"/>
        <path class="cls-1" d="M114.75,49.85h-.89l.75-2.68h1.05l-.9,2.68Z"/>
        <path class="cls-1" d="M119.94,40.71h1.05v7.71h-1.05v-7.71Z"/>
        <path class="cls-1" d="M122.5,43.26h.98v.79h.02c.12-.28.34-.5.64-.67.3-.17.66-.26,1.06-.26.25,0,.48.04.71.11.23.08.43.19.6.35.17.16.31.36.41.62.1.25.15.55.15.89v3.32h-.98v-3.05c0-.24-.03-.44-.1-.62s-.15-.31-.26-.41c-.11-.11-.23-.18-.38-.23-.14-.05-.29-.07-.44-.07-.2,0-.39.03-.57.1-.17.07-.33.17-.46.31-.13.14-.23.32-.31.54s-.11.48-.11.77v2.66h-.98v-5.16Z"/>
        <path class="cls-1" d="M132.03,44.63c-.18-.19-.37-.33-.57-.43s-.44-.15-.71-.15-.5.05-.7.15-.37.23-.5.4c-.13.17-.24.37-.31.59-.07.22-.1.45-.1.69s.04.47.12.68c.08.21.19.4.34.56.14.16.32.28.52.38.2.09.43.14.69.14.28,0,.51-.05.71-.15.2-.1.38-.24.54-.43l.7.7c-.25.28-.55.49-.89.61s-.7.19-1.07.19c-.4,0-.76-.07-1.09-.2-.33-.13-.62-.31-.86-.55-.24-.24-.42-.52-.56-.85-.13-.33-.2-.7-.2-1.09s.07-.77.2-1.1c.13-.33.31-.62.55-.86.24-.24.52-.43.85-.56.33-.13.7-.2,1.11-.2.38,0,.74.07,1.08.2.34.13.64.34.9.62l-.74.68Z"/>
        <path class="cls-1" d="M134.15,48.48c-.2,0-.36-.07-.51-.21-.14-.14-.21-.31-.21-.51s.07-.36.21-.51c.14-.14.31-.21.51-.21s.36.07.51.21c.14.14.21.31.21.51s-.07.36-.21.51c-.14.14-.31.21-.51.21Z"/>
      </g>
    </g>
  </g>
</svg>