<?xml version="1.0" encoding="UTF-8"?>
<svg id="Layer_2" data-name="Layer 2" xmlns="http://www.w3.org/2000/svg" viewBox="0 0 301.43 111.43">
  <defs>
    <style>
      .cls-1 {
        fill: #4488bc;
      }

      .cls-2 {
        fill: #fff;
      }
    </style>
  </defs>
  <g id="Layer_1-2" data-name="Layer 1">
    <g>
      <polygon class="cls-1" points="57.23 0 57.2 .02 57.2 9.32 108.16 53.65 108.16 102.57 50.97 102.57 50.97 5.33 44.37 10.94 44.37 102.57 36.67 102.57 36.67 17.49 30.43 22.79 30.43 102.57 21.63 102.57 21.63 30.28 15.4 35.58 15.4 102.57 6.6 102.57 6.6 43.06 0 48.68 0 108.8 114.4 108.8 114.4 49.26 57.23 0"/>
      <g>
        <path class="cls-2" d="M130.69,48.97h7.57v14.26l13.34-14.26h9.89l-15.28,15.95,16.58,18.38h-10.57l-13.97-16.29v16.29h-7.57v-34.33Z"/>
        <path class="cls-2" d="M164.44,48.97h10.28l14.6,23.86h.1v-23.86h7.57v34.33h-9.89l-14.98-24.44h-.1v24.44h-7.56v-34.33Z"/>
        <path class="cls-2" d="M199.26,71.52c0-1.87.34-3.57,1.02-5.09.68-1.52,1.61-2.82,2.79-3.9,1.18-1.08,2.57-1.92,4.17-2.5,1.6-.58,3.31-.87,5.12-.87s3.52.29,5.12.87c1.6.58,2.99,1.41,4.17,2.5,1.18,1.08,2.11,2.38,2.79,3.9.68,1.52,1.02,3.22,1.02,5.09s-.34,3.57-1.02,5.09c-.68,1.52-1.61,2.82-2.79,3.9-1.18,1.08-2.57,1.92-4.17,2.5-1.6.58-3.31.87-5.12.87s-3.52-.29-5.12-.87c-1.6-.58-2.99-1.41-4.17-2.5-1.18-1.08-2.11-2.38-2.79-3.9-.68-1.52-1.02-3.22-1.02-5.09ZM206.53,71.52c0,1.78.51,3.22,1.53,4.32,1.02,1.1,2.45,1.65,4.29,1.65s3.27-.55,4.29-1.65c1.02-1.1,1.53-2.54,1.53-4.32s-.51-3.22-1.53-4.32c-1.02-1.1-2.45-1.65-4.29-1.65s-3.27.55-4.29,1.65c-1.02,1.1-1.53,2.54-1.53,4.32Z"/>
        <path class="cls-2" d="M224.33,59.74h7.86l5.96,16h.1l5.53-16h7.32l-9.31,23.57h-7.71l-9.75-23.57Z"/>
        <path class="cls-2" d="M266.61,80.35h-.1c-.81,1.26-1.88,2.17-3.22,2.72-1.34.55-2.76.82-4.24.82-1.1,0-2.16-.15-3.18-.46-1.02-.31-1.92-.77-2.69-1.38-.78-.61-1.39-1.37-1.84-2.28-.45-.9-.68-1.96-.68-3.15,0-1.36.25-2.51.75-3.44.5-.94,1.18-1.71,2.04-2.33.86-.61,1.83-1.09,2.93-1.43,1.1-.34,2.24-.59,3.42-.75,1.18-.16,2.36-.26,3.54-.29,1.18-.03,2.27-.05,3.27-.05,0-1.29-.46-2.32-1.38-3.08-.92-.76-2.01-1.14-3.27-1.14s-2.29.25-3.27.75c-.99.5-1.87,1.19-2.64,2.06l-3.88-3.98c1.36-1.26,2.94-2.21,4.75-2.84,1.81-.63,3.69-.95,5.62-.95,2.13,0,3.89.27,5.26.8,1.37.53,2.47,1.32,3.3,2.35.82,1.03,1.4,2.3,1.72,3.81.32,1.5.48,3.24.48,5.21v11.98h-6.69v-2.96ZM264.82,72.98c-.55,0-1.24.02-2.06.07-.82.05-1.62.19-2.38.41-.76.23-1.41.57-1.94,1.02-.53.45-.8,1.08-.8,1.89,0,.87.37,1.52,1.12,1.94.74.42,1.52.63,2.33.63.71,0,1.4-.1,2.06-.29.66-.19,1.25-.47,1.77-.82.52-.36.93-.81,1.24-1.36.31-.55.46-1.2.46-1.94v-1.55h-1.79Z"/>
        <path class="cls-2" d="M142.09,94.71c-.49-.63-1.1-1.12-1.85-1.46-.75-.34-1.52-.51-2.31-.51-.97,0-1.85.18-2.64.55-.79.37-1.46.86-2.02,1.5-.56.63-.99,1.38-1.3,2.23s-.46,1.76-.46,2.74c0,.91.15,1.77.44,2.58.29.81.71,1.53,1.27,2.14.55.62,1.22,1.1,2.02,1.46s1.7.54,2.7.54,1.86-.2,2.6-.61c.75-.41,1.38-.97,1.9-1.7l1.97,1.48c-.13.18-.36.43-.68.77s-.75.67-1.29,1c-.54.33-1.18.63-1.94.88-.75.25-1.63.38-2.62.38-1.36,0-2.59-.26-3.69-.78-1.1-.52-2.03-1.2-2.8-2.04-.77-.84-1.36-1.8-1.77-2.86-.41-1.06-.61-2.14-.61-3.23,0-1.33.22-2.56.66-3.69s1.05-2.1,1.84-2.92c.79-.82,1.73-1.46,2.84-1.91,1.1-.45,2.32-.68,3.65-.68,1.14,0,2.25.22,3.35.66,1.1.44,1.99,1.11,2.69,2.02l-1.95,1.48Z"/>
        <path class="cls-2" d="M145.62,102.45c0-.84.16-1.63.47-2.36.32-.73.75-1.37,1.3-1.92.55-.55,1.2-.99,1.95-1.3.75-.32,1.55-.47,2.41-.47s1.66.16,2.41.47c.75.32,1.4.75,1.95,1.3.55.55.99,1.19,1.3,1.92.32.73.47,1.52.47,2.36s-.16,1.64-.47,2.37c-.32.74-.75,1.38-1.3,1.92-.55.54-1.2.97-1.95,1.29-.75.32-1.55.47-2.41.47s-1.66-.16-2.41-.47c-.75-.32-1.4-.75-1.95-1.29-.55-.54-.99-1.18-1.3-1.92-.32-.74-.47-1.53-.47-2.37ZM147.96,102.45c0,.58.09,1.12.27,1.62.18.5.43.92.75,1.27.32.35.72.63,1.19.83s1,.3,1.58.3,1.11-.1,1.58-.3.87-.48,1.19-.83c.32-.35.58-.77.75-1.27.18-.49.27-1.03.27-1.62s-.09-1.12-.27-1.62c-.18-.49-.43-.92-.75-1.27-.33-.35-.72-.62-1.19-.83-.47-.2-1-.3-1.58-.3s-1.11.1-1.58.3c-.47.2-.87.48-1.19.83-.32.35-.58.77-.75,1.27-.18.5-.27,1.03-.27,1.62Z"/>
        <path class="cls-2" d="M160.15,96.68h2.19v1.78h.05c.28-.62.75-1.12,1.44-1.5.68-.38,1.47-.57,2.36-.57.55,0,1.08.09,1.59.26.51.17.96.43,1.34.79.38.36.69.82.91,1.38.23.56.34,1.22.34,1.98v7.42h-2.19v-6.82c0-.54-.07-.99-.22-1.38s-.34-.69-.58-.93c-.24-.24-.52-.41-.84-.51-.32-.11-.65-.16-.99-.16-.45,0-.88.07-1.27.22-.39.15-.73.38-1.02.69-.29.32-.52.72-.68,1.2s-.24,1.06-.24,1.73v5.94h-2.19v-11.54Z"/>
        <path class="cls-2" d="M179.38,98.58h-3.14v5.23c0,.32,0,.65.02.96.02.32.08.6.18.85s.27.45.49.61.54.23.96.23c.26,0,.53-.02.8-.07.28-.05.53-.14.75-.27v2c-.26.15-.6.25-1.01.3-.41.06-.73.08-.96.08-.84,0-1.5-.12-1.96-.35-.46-.24-.8-.54-1.02-.91-.22-.37-.35-.79-.39-1.25-.04-.46-.06-.93-.06-1.4v-6.01h-2.53v-1.9h2.53v-3.24h2.19v3.24h3.14v1.9Z"/>
        <path class="cls-2" d="M181.72,96.68h2.19v1.78h.05c.15-.31.34-.59.58-.84.24-.25.52-.47.82-.64.3-.18.63-.32.99-.43.36-.11.71-.16,1.07-.16s.68.05.97.15l-.1,2.36c-.18-.05-.36-.09-.54-.12-.18-.03-.36-.05-.54-.05-1.07,0-1.89.3-2.46.9-.57.6-.85,1.53-.85,2.8v5.79h-2.19v-11.54Z"/>
        <path class="cls-2" d="M190.29,98.09c.62-.57,1.33-.99,2.14-1.28.81-.28,1.62-.43,2.43-.43s1.57.11,2.18.32c.61.21,1.11.5,1.5.85.39.36.68.77.86,1.23.19.46.28.95.28,1.45v5.89c0,.41,0,.78.02,1.12s.04.67.07.97h-1.95c-.05-.58-.07-1.17-.07-1.75h-.05c-.49.75-1.06,1.27-1.73,1.58-.67.31-1.44.46-2.31.46-.54,0-1.05-.07-1.53-.22-.49-.15-.91-.37-1.28-.66-.37-.29-.65-.65-.86-1.08-.21-.43-.32-.93-.32-1.5,0-.75.17-1.37.5-1.87.33-.5.79-.91,1.36-1.23.58-.32,1.25-.54,2.02-.68.77-.14,1.59-.21,2.47-.21h1.61v-.49c0-.29-.06-.58-.17-.88-.11-.29-.28-.56-.51-.79-.23-.24-.51-.42-.85-.56-.34-.14-.75-.21-1.22-.21-.42,0-.79.04-1.11.12s-.6.18-.86.3-.5.26-.71.43c-.21.16-.41.32-.61.46l-1.31-1.36ZM196.47,102.67c-.52,0-1.05.03-1.59.09-.54.06-1.04.17-1.49.33-.45.16-.81.39-1.1.68s-.43.67-.43,1.12c0,.67.22,1.14.67,1.44s1.05.44,1.81.44c.6,0,1.11-.1,1.53-.3.42-.2.76-.47,1.02-.79.26-.32.45-.69.56-1.08.11-.4.17-.79.17-1.18v-.73h-1.17Z"/>
        <path class="cls-2" d="M210.64,99.75c-.41-.42-.83-.74-1.28-.96s-.98-.33-1.59-.33-1.12.11-1.57.33-.82.52-1.12.9c-.3.38-.53.82-.68,1.31-.15.5-.23,1.01-.23,1.55s.09,1.04.27,1.52c.18.48.43.9.75,1.25.32.36.71.64,1.17.84.45.2.97.3,1.53.3.62,0,1.14-.11,1.58-.33.44-.22.84-.54,1.22-.96l1.56,1.56c-.57.63-1.23,1.09-1.98,1.36-.75.28-1.55.41-2.4.41-.89,0-1.71-.15-2.45-.44-.74-.29-1.38-.7-1.91-1.23-.54-.53-.95-1.16-1.24-1.9-.29-.74-.44-1.55-.44-2.45s.15-1.71.44-2.46c.29-.75.7-1.39,1.23-1.92.53-.54,1.16-.95,1.9-1.25.74-.3,1.56-.45,2.47-.45.84,0,1.65.15,2.42.45.77.3,1.44.76,2.01,1.38l-1.65,1.51Z"/>
        <path class="cls-2" d="M219.81,98.58h-3.14v5.23c0,.32,0,.65.02.96.02.32.08.6.18.85s.27.45.49.61.54.23.96.23c.26,0,.53-.02.8-.07.28-.05.53-.14.75-.27v2c-.26.15-.6.25-1.01.3-.41.06-.73.08-.96.08-.84,0-1.5-.12-1.96-.35-.46-.24-.8-.54-1.02-.91-.22-.37-.35-.79-.39-1.25-.04-.46-.06-.93-.06-1.4v-6.01h-2.53v-1.9h2.53v-3.24h2.19v3.24h3.14v1.9Z"/>
        <path class="cls-2" d="M221.59,102.45c0-.84.16-1.63.47-2.36.32-.73.75-1.37,1.3-1.92.55-.55,1.2-.99,1.95-1.3.75-.32,1.55-.47,2.41-.47s1.66.16,2.41.47c.75.32,1.4.75,1.95,1.3.55.55.99,1.19,1.3,1.92.32.73.47,1.52.47,2.36s-.16,1.64-.47,2.37c-.32.74-.75,1.38-1.3,1.92-.55.54-1.2.97-1.95,1.29-.75.32-1.55.47-2.41.47s-1.66-.16-2.41-.47c-.75-.32-1.4-.75-1.95-1.29-.55-.54-.99-1.18-1.3-1.92-.32-.74-.47-1.53-.47-2.37ZM223.93,102.45c0,.58.09,1.12.27,1.62.18.5.43.92.75,1.27.32.35.72.63,1.19.83.47.2,1,.3,1.58.3s1.11-.1,1.58-.3c.47-.2.87-.48,1.19-.83.32-.35.58-.77.75-1.27.18-.49.27-1.03.27-1.62s-.09-1.12-.27-1.62c-.18-.49-.43-.92-.75-1.27-.32-.35-.72-.62-1.19-.83-.47-.2-1-.3-1.58-.3s-1.11.1-1.58.3c-.47.2-.87.48-1.19.83-.33.35-.58.77-.75,1.27-.18.5-.27,1.03-.27,1.62Z"/>
        <path class="cls-2" d="M236.12,96.68h2.19v1.78h.05c.15-.31.34-.59.58-.84.24-.25.52-.47.82-.64.3-.18.63-.32.99-.43.36-.11.71-.16,1.07-.16s.68.05.97.15l-.1,2.36c-.18-.05-.36-.09-.54-.12-.18-.03-.36-.05-.54-.05-1.07,0-1.89.3-2.46.9-.57.6-.85,1.53-.85,2.8v5.79h-2.19v-11.54Z"/>
        <path class="cls-2" d="M250.78,99.57c-.26-.32-.58-.6-.96-.82-.38-.22-.85-.33-1.4-.33-.52,0-.97.11-1.35.33-.38.22-.57.54-.57.96,0,.34.11.62.33.83.22.21.48.38.78.51.3.13.62.23.96.29.34.07.63.12.88.17.47.11.91.25,1.33.41.41.16.77.37,1.07.63.3.26.54.58.71.95.17.37.26.83.26,1.36,0,.65-.14,1.2-.41,1.67-.28.46-.63.84-1.07,1.13-.44.29-.94.5-1.5.63-.56.13-1.12.19-1.69.19-.96,0-1.8-.15-2.52-.44-.72-.29-1.37-.83-1.94-1.61l1.66-1.36c.36.36.75.67,1.19.95.44.28.97.41,1.61.41.28,0,.55-.03.84-.09.28-.06.54-.15.75-.27.22-.12.4-.28.54-.46.14-.19.21-.4.21-.64,0-.32-.1-.59-.3-.8-.2-.21-.45-.38-.73-.5-.28-.12-.58-.22-.9-.29-.32-.07-.6-.13-.84-.18-.47-.11-.92-.24-1.34-.39-.42-.15-.8-.34-1.12-.58s-.58-.55-.78-.93c-.2-.37-.29-.84-.29-1.39,0-.6.13-1.12.38-1.57.25-.45.58-.82,1-1.11.41-.29.88-.51,1.41-.66.53-.15,1.06-.22,1.59-.22.78,0,1.53.15,2.24.44.71.29,1.28.78,1.7,1.46l-1.7,1.29Z"/>
        <path class="cls-2" d="M256.47,111.43h-2l1.68-5.99h2.34l-2.02,5.99Z"/>
        <path class="cls-2" d="M268.08,90.98h2.34v17.23h-2.34v-17.23Z"/>
        <path class="cls-2" d="M273.8,96.68h2.19v1.78h.05c.28-.62.75-1.12,1.44-1.5.68-.38,1.47-.57,2.36-.57.55,0,1.08.09,1.59.26.51.17.96.43,1.34.79.38.36.69.82.91,1.38.23.56.34,1.22.34,1.98v7.42h-2.19v-6.82c0-.54-.07-.99-.22-1.38s-.34-.69-.58-.93c-.24-.24-.52-.41-.84-.51-.32-.11-.65-.16-.99-.16-.45,0-.88.07-1.27.22-.39.15-.73.38-1.02.69-.29.32-.52.72-.68,1.2s-.24,1.06-.24,1.73v5.94h-2.19v-11.54Z"/>
        <path class="cls-2" d="M295.1,99.75c-.41-.42-.83-.74-1.28-.96s-.98-.33-1.59-.33-1.12.11-1.57.33c-.45.22-.82.52-1.12.9-.3.38-.53.82-.68,1.31-.15.5-.23,1.01-.23,1.55s.09,1.04.27,1.52c.18.48.43.9.75,1.25.32.36.71.64,1.17.84.45.2.97.3,1.53.3.62,0,1.14-.11,1.58-.33.44-.22.84-.54,1.22-.96l1.56,1.56c-.57.63-1.23,1.09-1.98,1.36-.75.28-1.55.41-2.4.41-.89,0-1.71-.15-2.45-.44-.74-.29-1.38-.7-1.91-1.23-.54-.53-.95-1.16-1.24-1.9-.29-.74-.44-1.55-.44-2.45s.15-1.71.44-2.46c.29-.75.7-1.39,1.23-1.92.53-.54,1.16-.95,1.9-1.25.74-.3,1.56-.45,2.47-.45.84,0,1.65.15,2.42.45.77.3,1.44.76,2.01,1.38l-1.65,1.51Z"/>
        <path class="cls-2" d="M299.83,108.36c-.44,0-.82-.16-1.13-.47-.32-.32-.47-.69-.47-1.13s.16-.82.47-1.13c.32-.32.69-.47,1.13-.47s.82.16,1.13.47c.32.32.47.69.47,1.13s-.16.82-.47,1.13c-.32.32-.69.47-1.13.47Z"/>
      </g>
    </g>
  </g>
</svg>